P2
# MEM GENERATED PBM IMAGE
24 24
255
191 167
165 178
192 192
194 194
197 202
217 213
192 157
152 149
147 147
147 147
147 145
144 162
127 84
79 101
112 115
118 120
120 144
181 173
155 121
97 96
71 57
50 45
37 36
30 67
109 61
59 72
72 77
75 77
90 93
94 96
85 101
97 102
94 74
74 73
50 47
43 77
112 63
62 64
66 67
82 136
155 133
140 167
167 156
125 59
54 51
59 82
73 43
37 76
143 106
109 115
117 122
127 159
158 163
182 170
175 200
211 163
135 138
127 81
64 60
32 69
112 53
69 77
71 82
137 139
126 136
133 136
161 176
189 203
161 146
135 75
50 53
35 65
109 45
64 72
63 81
168 127
105 124
121 132
147 143
150 194
207 149
132 73
44 47
41 68
154 114
128 122
107 149
140 97
84 96
108 113
105 97
116 155
213 181
125 75
51 52
46 67
125 93
59 51
56 160
113 74
110 161
89 79
78 80
93 120
170 194
125 75
59 52
46 86
125 93
67 70
53 179
100 74
176 173
140 88
156 110
74 91
117 162
155 77
68 52
48 91
141 96
83 61
73 147
75 97
144 93
152 160
179 168
80 87
96 128
167 81
68 54
49 86
114 62
33 30
98 114
66 101
83 61
129 142
84 144
104 73
89 112
165 83
71 56
51 81
127 79
35 37
85 112
65 81
91 77
123 121
81 101
108 73
82 105
168 105
70 54
51 83
143 103
103 100
119 107
62 54
116 106
74 120
88 125
84 73
82 97
149 90
58 50
57 92
138 95
103 111
139 107
67 59
52 61
46 69
95 93
62 71
78 89
137 88
59 54
52 83
119 65
58 60
129 108
76 61
52 48
51 51
53 53
62 68
75 87
123 75
56 66
63 96
245 238
232 224
212 132
83 58
52 51
48 51
53 55
64 68
70 90
128 85
82 98
95 122
240 238
238 240
240 203
108 58
49 50
48 48
51 53
62 69
73 112
230 247
240 234
226 227
245 245
240 242
242 223
120 61
45 45
46 49
51 51
58 67
78 151
250 245
240 240
240 245
245 240
242 240
228 184
113 64
45 44
44 46
48 51
55 77
127 219
247 245
245 245
240 245
245 240
240 234
223 193
135 98
65 55
49 49
52 57
69 84
112 159
216 240
242 245
245 245
245 245
240 234
221 195
170 139
124 115
110 107
110 112
120 130
143 170
202 224
238 243
245 245
234 232
234 234
229 226
212 200
186 178
170 164
164 167
175 189
201 217
232 234
240 245
245 245
221 212
215 215
218 215
215 213
213 213
213 215
216 221
226 229
235 239
245 245
245 250
250 250
