P3
# MEM GENERATED PPM IMAGE
24 24
255
 200 188 176
 176 164 152
 176 160 152
 184 176 168
 192 192 192
 192 192 192
 192 196 192
 192 196 192
 200 196 192
 200 204 200
 216 216 224
 208 216 216
 192 192 192
 152 160 160
 152 152 152
 144 152 152
 144 148 152
 144 148 152
 144 148 152
 144 148 152
 144 148 152
 144 144 152
 144 144 144
 160 164 160
 144 120 104
 104 76 56
 88 76 64
 104 100 96
 112 112 112
 120 112 112
 120 116 120
 120 120 120
 120 120 120
 144 144 144
 176 184 184
 168 176 176
 152 156 160
 120 120 128
 96 96 104
 88 100 104
 64 72 88
 48 56 88
 40 52 72
 40 44 64
 32 36 56
 32 36 48
 32 28 32
 64 68 72
 112 108 104
 64 60 56
 56 60 64
 72 72 72
 72 72 72
 72 80 80
 72 76 80
 72 80 80
 80 96 96
 88 96 96
 88 96 104
 88 100 104
 80 88 88
 96 104 104
 96 96 104
 96 104 112
 88 96 104
 64 76 96
 64 76 96
 64 72 104
 40 48 88
 32 48 88
 32 44 72
 72 76 96
 112 112 112
 64 64 56
 64 60 64
 64 64 64
 64 68 64
 64 68 72
 72 88 88
 88 168 152
 88 200 176
 80 168 152
 104 164 152
 112 204 184
 128 192 184
 120 180 168
 96 144 136
 56 60 64
 48 56 64
 48 52 56
 56 60 64
 72 84 104
 64 72 104
 32 44 72
 24 36 80
 64 76 112
 144 144 136
 112 104 96
 112 108 104
 120 112 112
 248 252 152
 200 100 248
 248 252 152
 200 100 248
 248 252 152
 200 100 248
 248 252 152
 200 100 248
 248 252 152
 200 100 248
 248 252 152
 200 100 248
 248 252 152
 200 100 248
 248 252 152
 200 100 248
 56 64 88
 56 60 72
 32 28 48
 64 68 88
 112 112 112
 48 56 56
 72 68 64
 80 76 72
 200 100 248
 80 84 80
 104 160 144
 32 212 168
 0 212 160
 8 224 168
 0 224 168
 8 224 168
 48 236 200
 72 244 216
 104 244 224
 160 232 216
 160 164 152
 152 144 136
 136 136 128
 72 76 80
 248 252 152
 48 52 72
 32 36 40
 64 64 72
 112 108 104
 40 48 48
 64 64 64
 72 72 72
 248 252 152
 72 88 80
 72 232 200
 8 208 160
 0 180 120
 8 204 152
 0 204 152
 16 212 160
 32 224 184
 24 224 176
 40 224 184
 112 248 224
 176 228 216
 144 156 136
 128 136 128
 72 72 80
 200 100 248
 40 48 64
 40 40 48
 64 68 80
 160 152 144
 120 112 104
 136 124 120
 128 120 112
 200 100 248
 120 168 160
 16 224 176
 8 160 112
 0 144 96
 0 164 112
 0 184 128
 0 192 136
 0 180 120
 0 168 104
 8 192 136
 48 228 184
 160 248 232
 160 196 184
 112 136 120
 72 76 80
 248 252 152
 48 52 64
 48 44 48
 64 68 72
 128 124 120
 96 92 88
 56 60 64
 48 52 56
 248 252 152
 88 208 184
 0 192 136
 16 116 80
 72 136 120
 136 176 176
 24 136 96
 0 136 88
 8 128 88
 8 132 88
 0 160 104
 16 192 144
 72 236 200
 144 228 208
 112 136 120
 72 76 80
 200 100 248
 48 52 64
 48 44 48
 88 84 88
 128 124 120
 96 92 88
 64 68 72
 64 72 80
 200 100 248
 88 240 208
 16 160 112
 32 104 80
 168 180 184
 168 176 176
 120 152 152
 48 116 96
 136 168 168
 72 136 120
 0 128 80
 0 156 104
 8 192 144
 64 228 192
 136 168 160
 72 80 80
 248 252 152
 48 52 64
 48 48 48
 96 88 88
 136 144 144
 88 100 104
 80 84 88
 56 64 64
 248 252 152
 32 224 184
 8 124 80
 64 120 104
 144 144 144
 88 96 96
 144 156 160
 152 164 168
 176 180 184
 160 172 176
 24 120 88
 8 144 96
 0 164 112
 24 200 152
 136 188 176
 80 80 88
 200 100 248
 56 52 56
 48 48 56
 88 84 88
 112 116 112
 64 60 64
 32 32 40
 24 32 40
 200 100 248
 8 188 136
 8 108 72
 72 120 112
 80 84 88
 56 64 64
 120 132 144
 136 144 152
 88 80 88
 136 148 152
 64 132 112
 8 120 80
 8 148 96
 16 180 128
 112 200 184
 80 84 88
 248 252 152
 56 56 56
 48 52 56
 80 80 88
 128 128 120
 80 80 72
 32 36 40
 32 40 40
 248 252 152
 16 180 128
 8 108 64
 48 104 88
 88 92 96
 72 80 80
 112 128 136
 120 120 128
 80 80 88
 96 104 104
 72 132 120
 8 120 80
 8 136 88
 16 168 120
 96 216 192
 96 108 120
 200 100 248
 56 52 56
 48 52 56
 80 84 88
 152 140 128
 112 100 88
 112 100 88
 104 100 88
 200 100 248
 16 172 120
 0 108 64
 8 88 56
 96 128 128
 88 116 120
 48 92 80
 112 124 128
 88 88 88
 120 128 128
 40 116 88
 8 120 80
 8 136 88
 8 160 112
 72 200 176
 80 92 112
 248 252 152
 48 48 64
 56 56 64
 88 92 104
 144 136 128
 104 92 80
 112 100 88
 120 108 96
 248 252 152
 16 172 120
 0 116 72
 8 96 64
 8 84 56
 24 88 64
 16 68 48
 40 88 80
 80 104 104
 64 112 104
 16 96 64
 8 116 80
 8 128 88
 8 148 96
 64 188 152
 88 88 88
 200 100 248
 56 52 56
 56 48 56
 88 80 80
 112 124 120
 64 68 56
 56 60 56
 56 64 56
 200 100 248
 8 180 120
 0 132 80
 8 100 64
 8 84 56
 8 76 56
 16 76 56
 16 76 56
 16 80 56
 16 80 56
 16 96 64
 8 112 72
 8 124 80
 8 144 96
 64 164 136
 80 72 72
 248 252 152
 72 64 56
 72 60 48
 104 92 88
 240 248 248
 232 240 248
 224 236 240
 216 228 232
 248 252 152
 40 196 152
 0 144 88
 0 100 64
 8 84 56
 16 76 56
 16 72 48
 16 76 56
 16 80 56
 16 84 56
 16 100 64
 8 112 72
 8 116 72
 16 144 96
 88 156 136
 88 84 80
 200 100 248
 112 92 80
 112 88 72
 136 116 104
 232 244 248
 232 240 248
 232 240 248
 232 244 248
 200 100 248
 160 232 216
 24 168 120
 0 100 64
 8 80 48
 16 76 48
 16 72 48
 16 72 48
 16 76 56
 16 80 56
 16 96 64
 16 108 72
 8 120 80
 32 168 128
 208 244 240
 240 252 248
 248 252 152
 224 240 240
 216 232 232
 224 228 232
 240 248 248
 240 248 248
 232 244 248
 232 248 248
 248 252 152
 192 244 232
 48 172 128
 8 100 64
 8 72 48
 8 72 48
 16 68 48
 16 72 56
 16 76 56
 16 76 56
 16 88 64
 16 104 72
 8 128 88
 88 196 160
 248 252 248
 240 248 248
 200 100 248
 232 244 248
 232 244 248
 240 248 248
 240 248 248
 232 244 248
 232 248 248
 232 244 248
 200 100 248
 248 252 152
 200 100 248
 248 252 152
 200 100 248
 248 252 152
 200 100 248
 248 252 152
 200 100 248
 248 252 152
 200 100 248
 248 252 152
 200 100 248
 248 252 152
 200 100 248
 248 252 152
 248 252 152
 240 248 248
 232 244 248
 240 248 248
 240 248 248
 232 244 248
 232 244 248
 224 240 240
 208 232 232
 160 216 200
 96 164 136
 64 124 96
 40 84 64
 32 72 56
 24 68 48
 24 68 48
 24 72 56
 24 80 64
 32 96 72
 40 116 88
 64 148 112
 136 176 160
 208 220 224
 232 244 248
 232 248 248
 240 248 248
 240 248 248
 240 248 248
 240 248 248
 240 248 248
 232 244 248
 224 240 240
 208 228 232
 176 208 200
 144 188 176
 120 152 144
 112 132 128
 104 124 112
 96 120 112
 96 116 104
 96 120 112
 96 124 112
 104 132 120
 112 144 128
 120 160 144
 144 188 176
 192 208 208
 216 228 232
 232 240 248
 240 244 248
 240 248 248
 240 248 248
 232 236 232
 232 232 232
 232 236 232
 232 236 232
 224 232 232
 216 232 232
 200 220 216
 192 204 208
 176 192 192
 168 184 184
 160 176 176
 152 172 168
 152 172 168
 152 176 176
 160 184 184
 176 196 200
 184 212 208
 200 228 224
 224 236 240
 224 240 240
 232 244 248
 240 248 248
 240 248 248
 240 248 248
 224 220 216
 216 212 200
 216 216 208
 216 216 208
 224 216 208
 216 216 208
 216 216 208
 216 212 208
 216 212 208
 216 212 208
 216 212 208
 216 216 208
 216 216 216
 224 220 216
 224 228 224
 224 232 232
 232 236 240
 232 244 240
 240 248 248
 240 248 248
 240 248 248
 248 252 248
 248 252 248
 248 252 248
