P3
# new image
24 24
255 
160 84 152
248 4 104
248 132 104
144 148 232
216 204 24
216 204 24
216 76 24
216 76 24
208 76 152
208 12 152
224 156 216
136 156 88
216 204 24
176 132 200
208 212 200
216 212 72
216 20 72
216 20 72
216 20 72
216 20 72
216 20 72
216 148 72
216 148 72
136 4 40
160 24 72
8 136 176
72 136 208
88 200 176
0 88 112
8 88 240
8 216 240
8 24 240
8 24 240
216 148 72
216 212 104
192 148 168
176 84 200
112 24 240
80 72 48
104 200 208
16 8 16
96 80 96
56 144 160
56 192 160
64 128 32
64 128 32
0 208 32
80 200 16
64 136 112
32 208 16
40 208 224
88 8 144
88 8 144
24 88 144
24 136 144
24 88 144
96 72 80
104 72 208
104 72 208
104 200 208
0 24 80
80 8 48
80 72 48
16 8 48
104 72 208
112 136 16
112 136 16
112 8 16
120 16 160
112 16 32
48 192 32
120 136 144
0 88 112
32 72 16
80 208 16
80 72 16
80 200 16
80 200 16
24 24 144
16 196 208
48 140 208
24 196 80
32 4 176
24 12 112
232 204 8
80 20 240
104 148 48
40 208 224
32 80 96
80 144 96
40 208 224
120 216 144
112 8 16
48 192 32
72 128 192
48 136 16
152 148 72
64 8 112
64 136 112
8 88 240
8 216 240
240 24 8
240 132 8
56 92 80
48 12 160
112 92 160
104 156 80
96 92 224
24 156 16
64 28 240
152 92 40
176 68 200
224 4 72
152 196 72
240 132 8
120 216 144
104 72 224
40 208 224
64 208 32
16 200 16
0 88 112
80 80 96
88 200 144
64 136 80
88 8 144
0 216 80
32 132 176
8 92 32
40 92 0
32 204 128
40 204 0
32 204 128
40 12 96
16 92 144
80 92 176
248 140 40
232 4 40
144 148 200
128 196 136
24 136 144
32 16 96
32 144 96
0 128 32
80 72 16
64 136 112
72 16 160
80 72 16
88 8 144
32 72 16
24 24 144
80 140 144
32 220 128
112 20 0
64 12 128
72 12 0
56 92 64
72 204 32
112 204 192
64 204 160
72 156 112
232 76 104
152 84 72
136 196 8
24 8 144
72 192 160
56 16 160
72 64 160
16 200 16
232 212 40
72 88 240
248 152 136
240 24 8
64 8 112
80 196 240
120 204 64
120 132 128
48 148 0
112 4 0
8 212 0
8 204 0
112 20 0
48 196 0
0 204 128
88 76 96
152 156 40
200 76 40
0 196 112
24 136 144
80 144 96
32 144 96
80 192 96
80 200 16
240 152 8
48 152 48
40 208 224
80 144 96
32 208 96
48 220 208
8 204 0
64 216 64
56 196 144
224 148 136
40 196 192
80 196 0
88 132 128
88 4 128
48 132 0
88 204 64
80 12 144
200 76 72
0 196 112
24 136 144
40 208 224
32 144 96
80 192 96
8 216 208
240 152 8
48 152 48
80 200 16
16 8 16
56 208 160
0 220 208
96 132 64
112 8 32
192 20 168
192 148 168
48 212 240
0 216 96
160 196 136
56 196 144
80 132 0
48 84 0
64 204 128
88 76 16
160 196 136
24 88 144
16 200 16
32 144 96
80 16 96
48 24 48
192 148 136
104 200 208
0 216 80
40 72 224
104 216 224
72 204 32
88 152 128
112 24 16
216 148 72
104 72 208
184 84 72
176 4 200
216 20 104
200 68 40
72 24 192
56 148 128
112 4 0
80 140 192
224 84 136
0 88 80
16 200 16
88 144 224
80 16 96
8 216 208
0 216 112
80 208 16
0 0 32
56 0 192
120 216 144
0 84 128
24 136 128
56 24 144
0 216 80
40 72 224
48 4 240
192 148 136
8 88 208
192 20 136
48 4 16
88 24 128
56 20 128
24 20 64
24 140 112
0 216 80
16 8 16
88 80 224
80 144 96
0 88 80
240 132 8
64 88 80
0 128 32
0 64 32
8 8 224
24 20 64
24 136 128
96 8 96
104 152 208
24 88 144
120 132 112
112 24 240
0 88 80
80 8 48
56 4 144
88 24 128
88 196 128
96 196 64
120 156 48
16 136 48
16 8 16
88 144 224
80 144 96
0 216 80
144 68 200
32 200 112
32 200 112
56 200 176
24 4 176
96 68 64
16 136 0
104 24 128
104 132 48
40 216 208
96 152 96
120 152 112
8 24 208
112 132 240
120 216 160
88 24 128
88 196 128
120 132 128
32 140 144
32 152 80
40 80 224
32 16 96
40 80 224
104 152 208
152 196 72
56 152 176
32 200 112
72 136 240
136 20 8
96 68 64
16 216 0
24 72 128
104 216 128
8 24 192
112 200 64
120 24 160
96 8 80
112 88 16
0 72 64
88 216 128
88 132 128
56 20 128
8 84 16
8 24 208
40 208 224
88 144 224
88 16 224
8 88 208
0 152 112
32 200 16
88 208 224
88 72 224
104 212 48
120 20 128
80 4 0
24 200 128
104 216 128
104 136 128
112 136 64
112 136 64
112 88 64
112 88 64
0 72 64
24 88 128
88 152 128
56 148 128
72 4 16
64 8 80
32 144 16
40 72 144
40 208 144
56 152 176
136 156 120
144 220 184
152 12 56
224 76 216
248 204 24
96 76 160
80 148 0
16 200 0
104 216 128
112 136 64
112 8 64
112 136 64
112 88 64
112 216 64
0 200 64
24 88 128
24 216 128
32 148 64
80 84 208
8 216 208
72 88 208
32 152 112
96 24 112
184 216 136
144 92 184
144 220 184
144 220 184
144 92 184
144 92 184
248 140 40
104 196 192
16 200 0
104 88 128
112 136 64
112 8 64
112 8 64
112 136 64
112 88 64
0 72 64
0 136 64
88 24 128
40 196 32
168 92 88
136 28 120
144 92 184
152 220 56
224 140 216
216 76 56
136 156 120
136 156 120
144 92 184
144 156 184
144 156 184
248 92 24
56 68 96
24 200 128
104 8 128
104 8 128
112 200 64
112 8 64
112 136 64
112 136 64
0 24 64
0 8 64
88 132 128
112 76 208
128 28 248
136 156 120
144 92 184
144 92 184
144 92 184
136 156 120
136 156 120
144 92 184
144 156 184
144 92 184
224 12 216
184 140 40
48 20 16
0 200 64
104 8 128
112 72 64
112 72 64
112 200 64
112 8 64
112 136 64
112 216 64
72 216 192
72 68 16
240 140 152
136 28 120
136 156 120
136 156 120
136 156 120
144 92 184
136 156 120
136 156 120
144 92 184
144 92 184
152 220 56
232 140 88
184 156 40
104 4 48
112 152 16
56 216 160
64 8 32
120 200 192
120 200 192
120 8 192
8 88 192
48 72 32
120 216 160
48 20 16
160 148 136
232 28 88
144 92 184
144 156 184
136 156 120
136 156 120
136 156 120
136 156 120
136 156 120
144 92 184
152 220 56
232 76 88
168 220 104
248 84 72
48 212 240
120 4 112
24 152 176
16 24 48
80 216 48
16 24 48
16 152 48
24 4 176
120 148 112
48 132 240
248 84 72
152 220 24
224 76 216
144 220 184
136 92 120
136 156 120
136 156 120
208 12 184
208 140 184
208 12 184
208 12 184
216 140 56
224 140 216
144 28 152
152 12 24
168 204 104
192 212 168
200 148 40
176 68 200
176 68 200
240 148 200
200 212 40
168 76 104
224 92 232
240 76 152
152 12 56
152 220 56
144 92 184
136 156 120
136 156 120
136 156 120
184 28 56
192 92 216
128 156 216
128 156 216
184 156 56
128 156 216
128 156 216
128 92 216
128 92 216
128 92 216
128 92 216
128 156 216
128 156 216
184 28 56
216 76 56
216 140 56
144 12 184
144 92 184
136 156 120
136 156 120
136 156 120
128 28 248
128 28 248
128 28 248
