P3
# new image
24 24
255 
104 244 152
200 148 104
200 20 104
168 52 232
24 12 24
24 12 24
24 140 24
24 140 24
24 140 152
152 204 152
56 108 216
216 108 88
24 12 24
40 20 200
200 100 200
200 100 72
200 164 72
200 164 72
200 164 72
200 164 72
200 164 72
200 36 72
72 36 72
40 148 40
176 120 72
224 200 176
16 200 208
48 152 176
112 56 112
112 56 240
240 184 240
240 120 240
240 120 240
72 36 72
232 116 104
104 52 168
40 228 200
8 120 240
176 24 48
176 152 208
208 72 16
208 112 96
144 176 160
16 208 160
224 144 32
96 144 32
32 224 32
144 136 16
176 216 112
224 240 16
16 240 224
144 72 144
144 72 144
80 40 144
80 200 144
80 40 144
48 24 80
48 24 208
176 24 208
176 152 208
208 104 80
176 88 48
176 24 48
112 88 48
176 24 208
48 200 16
48 200 16
176 72 16
208 48 160
208 48 32
144 208 32
48 200 144
112 56 112
224 8 16
16 240 16
16 8 16
16 136 16
144 136 16
208 104 144
200 84 208
104 76 208
200 84 80
200 148 176
232 204 112
232 12 8
168 180 240
136 36 48
16 240 224
16 112 96
224 176 96
16 240 224
176 168 144
176 72 16
144 208 32
80 144 192
112 200 16
136 36 72
48 88 112
176 216 112
112 56 240
112 184 240
112 120 8
240 4 8
232 172 80
152 220 160
88 188 160
56 124 80
216 188 224
216 124 16
184 252 240
184 188 40
40 212 200
240 132 72
8 68 72
240 4 8
48 168 144
208 8 224
144 240 224
96 224 32
208 136 16
112 56 112
224 112 96
16 136 144
144 200 80
16 72 144
80 168 80
72 20 176
168 172 32
40 172 0
168 28 128
168 28 0
168 28 128
152 220 96
216 188 144
56 188 176
216 92 40
200 148 40
136 36 200
8 68 136
80 200 144
16 48 96
144 176 96
160 144 32
144 8 16
176 216 112
96 48 160
16 8 16
144 72 144
224 8 16
80 104 144
152 92 144
40 44 128
240 180 0
200 204 128
200 204 0
40 172 64
232 28 32
104 28 192
232 28 160
56 124 112
216 156 104
136 228 72
8 68 8
80 72 144
224 208 160
16 48 160
96 80 160
80 136 16
72 100 40
176 56 240
240 248 136
112 120 8
176 88 112
40 84 240
104 28 64
112 20 128
48 36 0
112 148 0
8 116 0
136 12 0
240 180 0
176 84 0
136 12 128
232 156 96
184 124 40
232 140 40
240 68 112
80 200 144
224 176 96
16 176 96
96 208 96
144 136 16
240 248 8
208 232 48
16 240 224
224 176 96
16 240 96
232 44 208
136 12 0
80 184 64
240 68 144
104 52 136
48 68 192
208 68 0
208 4 128
208 132 128
176 20 0
72 12 64
152 220 144
88 156 72
240 68 112
80 200 144
16 240 224
16 176 96
96 208 96
208 168 208
240 248 8
208 232 48
144 136 16
80 72 16
16 240 160
88 60 208
112 20 64
80 88 32
232 180 168
104 52 168
200 100 240
48 184 96
168 84 136
240 68 144
80 4 0
176 228 0
72 12 128
24 156 16
40 84 136
80 40 144
80 136 16
16 176 96
96 48 96
208 104 48
72 36 136
176 152 208
208 168 80
16 8 224
80 168 224
232 28 32
80 248 128
176 120 16
72 36 72
48 24 208
40 228 72
168 148 200
232 180 104
104 212 40
208 120 192
48 36 128
112 148 0
200 76 192
104 244 136
208 40 80
80 136 16
224 176 224
224 48 96
208 168 208
112 184 112
16 240 16
160 16 32
160 16 192
176 184 144
136 244 128
144 216 128
112 120 144
208 168 80
16 8 224
72 132 240
200 36 136
208 40 208
200 164 136
112 132 16
80 120 128
48 164 128
8 180 64
232 76 112
208 168 80
208 72 16
224 112 224
224 176 96
208 40 80
240 4 8
144 40 80
160 144 32
160 80 32
48 88 224
8 180 64
16 216 128
208 88 96
48 232 208
80 40 144
136 4 112
8 120 240
208 40 80
176 88 48
240 132 144
80 120 128
208 68 128
240 84 64
24 108 48
240 216 48
80 72 16
224 176 224
224 176 96
208 168 80
8 196 200
208 152 112
208 152 112
208 152 176
112 132 176
240 212 64
16 216 0
224 104 128
8 4 48
240 184 208
80 232 96
8 248 112
208 104 208
8 4 240
208 184 160
80 120 128
208 68 128
112 20 128
104 76 144
112 232 80
144 112 224
16 48 96
16 112 224
176 232 208
8 68 72
80 232 176
208 152 112
48 216 240
136 164 8
240 212 64
144 184 0
16 24 128
224 168 128
16 104 192
96 136 64
80 104 160
176 88 80
176 56 16
16 24 64
80 184 128
208 4 128
48 164 128
200 244 16
208 104 208
16 240 224
224 176 224
224 48 224
80 40 208
240 248 112
224 136 16
224 240 224
224 8 224
136 100 48
240 180 128
80 132 0
16 152 128
224 168 128
224 200 128
224 200 64
224 200 64
224 40 64
224 40 64
16 24 64
144 56 128
80 248 128
48 36 128
136 148 16
144 72 80
96 176 16
224 8 144
96 240 144
208 232 176
248 124 120
248 60 184
120 220 56
184 156 216
56 28 24
200 140 160
208 36 0
16 152 0
224 168 128
224 200 64
96 72 64
224 200 64
224 40 64
224 168 64
16 152 64
144 56 128
144 184 128
48 36 64
136 228 208
80 168 208
144 40 208
80 232 112
144 104 112
176 184 136
248 188 184
248 60 184
248 60 184
248 188 184
248 188 184
216 92 40
240 84 192
16 152 0
96 40 128
96 200 64
96 72 64
96 72 64
224 200 64
224 40 64
16 24 64
144 216 64
80 120 128
8 84 32
120 188 88
248 252 120
248 188 184
120 60 56
184 92 216
184 156 56
248 124 120
248 124 120
248 188 184
248 124 184
248 124 184
184 188 24
8 212 96
16 152 128
96 72 128
96 72 128
96 136 64
224 72 64
224 200 64
224 200 64
16 104 64
144 88 64
208 4 128
40 140 208
248 252 248
248 124 120
248 188 184
248 188 184
248 188 184
248 124 120
248 124 120
248 188 184
248 124 184
248 188 184
184 220 216
24 76 40
240 164 16
16 152 64
96 72 128
96 8 64
96 8 64
96 136 64
96 72 64
224 200 64
224 168 64
80 184 192
136 212 16
56 92 152
248 252 120
248 124 120
248 124 120
248 124 120
248 188 184
248 124 120
248 124 120
248 188 184
248 188 184
120 60 56
184 92 88
152 108 40
136 148 48
48 248 16
16 168 160
224 72 32
96 136 192
96 136 192
224 72 192
16 40 192
144 24 32
208 184 160
112 164 16
40 52 136
56 236 88
248 188 184
248 124 184
248 124 120
248 124 120
248 124 120
248 124 120
248 124 120
248 188 184
120 60 56
184 156 88
152 44 104
104 244 72
72 100 240
8 132 112
112 248 176
112 120 48
176 184 48
112 120 48
112 248 48
240 132 176
8 36 112
72 20 240
104 244 72
88 44 24
184 156 216
248 60 184
248 188 120
248 124 120
248 124 120
184 220 184
184 92 184
184 220 184
184 220 184
184 92 56
184 92 216
216 236 152
88 204 24
24 12 104
232 116 168
104 52 40
168 212 200
168 212 200
104 52 200
232 116 40
152 140 104
88 172 232
56 156 152
120 220 56
120 60 56
248 188 184
248 124 120
248 124 120
248 124 120
216 236 56
152 172 216
88 108 216
88 108 216
88 108 56
88 108 216
88 108 216
88 172 216
88 172 216
88 172 216
88 172 216
88 108 216
216 108 216
216 236 56
56 156 56
184 92 56
120 220 184
120 188 184
248 124 120
248 124 120
248 124 120
248 252 248
248 252 248
248 252 248
