P3
# MEM GENERATED PPM IMAGE
24 24
255
 240 212 16
 48 108 200
 16 108 232
 144 160 160
 24 24 240
 24 24 240
 56 24 208
 56 24 208
 56 24 144
 120 40 128
 216 156 40
 216 96 104
 24 24 240
 16 148 168
 208 104 184
 208 104 248
 176 104 200
 176 104 200
 176 104 200
 176 104 200
 176 104 200
 144 104 232
 144 88 232
 48 144 72
 200 164 0
 96 240 96
 104 8 96
 40 136 248
 136 192 16
 136 192 80
 168 240 112
 200 240 64
 200 240 64
 144 88 232
 208 232 240
 144 216 32
 240 148 152
 208 12 128
 8 184 152
 40 188 120
 72 112 128
 200 124 16
 168 52 224
 104 4 248
 32 248 40
 32 200 40
 224 128 56
 40 56 176
 104 184 40
 224 244 48
 232 4 112
 72 56 192
 72 56 192
 136 64 216
 104 64 224
 136 64 216
 8 140 24
 8 140 88
 8 188 88
 40 188 120
 200 112 8
 72 184 136
 8 184 152
 72 192 136
 8 188 88
 104 140 160
 104 140 160
 72 188 128
 136 124 192
 136 124 128
 104 52 184
 104 140 224
 136 192 16
 0 244 16
 232 8 176
 8 8 144
 40 8 176
 40 56 176
 200 112 200
 80 112 184
 80 196 160
 80 112 248
 48 116 8
 112 240 192
 16 236 112
 176 184 128
 144 60 104
 232 4 112
 200 4 16
 160 248 160
 232 4 112
 168 188 248
 72 188 128
 104 52 184
 40 72 104
 104 196 160
 144 32 232
 72 136 8
 104 184 40
 136 192 80
 168 192 112
 200 220 128
 8 236 160
 176 244 216
 120 52 136
 184 76 144
 216 140 96
 184 124 16
 216 112 224
 248 184 0
 184 160 208
 112 148 152
 40 236 0
 80 16 240
 8 236 160
 168 140 248
 8 124 80
 232 52 112
 224 200 56
 40 112 176
 136 192 16
 192 248 144
 40 8 240
 104 56 32
 72 8 192
 168 64 56
 16 68 40
 176 176 88
 176 132 88
 16 180 56
 16 180 120
 16 180 56
 120 52 72
 184 112 144
 184 136 144
 88 108 232
 48 108 72
 144 32 168
 80 16 48
 104 64 224
 136 4 0
 168 52 32
 32 176 40
 8 56 144
 104 184 40
 128 200 64
 8 8 144
 72 56 192
 0 244 16
 200 64 200
 88 56 168
 144 132 56
 168 252 128
 112 120 0
 112 120 64
 176 132 216
 16 248 120
 16 204 184
 16 248 56
 216 136 96
 56 108 88
 240 32 216
 80 16 112
 72 64 192
 96 248 120
 136 4 192
 64 200 88
 40 64 176
 208 92 120
 136 184 80
 232 236 224
 200 220 128
 72 184 8
 80 136 184
 16 204 248
 8 204 232
 136 132 168
 40 204 136
 208 0 112
 16 48 112
 168 252 128
 72 180 184
 16 48 48
 48 248 216
 216 160 224
 48 232 80
 72 240 48
 104 64 224
 160 248 160
 168 4 32
 96 200 184
 40 56 176
 232 236 160
 232 116 168
 232 4 112
 160 248 160
 232 4 48
 144 244 184
 16 48 112
 168 72 48
 72 244 240
 144 220 32
 72 132 112
 72 120 176
 8 120 224
 40 120 192
 8 180 168
 16 72 240
 120 56 136
 56 88 88
 72 240 48
 104 64 224
 232 4 112
 168 4 32
 96 200 184
 168 112 120
 232 236 160
 232 116 168
 40 56 176
 72 64 128
 232 4 240
 152 64 48
 8 204 40
 72 76 136
 176 232 0
 144 216 32
 208 116 184
 168 128 48
 80 164 56
 72 244 240
 8 72 160
 232 180 152
 16 72 48
 56 8 216
 80 148 56
 136 64 216
 40 64 176
 168 4 32
 128 200 128
 200 116 136
 144 88 40
 40 188 120
 168 112 56
 8 4 80
 168 76 120
 16 248 120
 232 72 224
 200 188 128
 144 88 232
 8 140 88
 240 148 216
 48 164 136
 176 232 192
 112 216 88
 200 120 64
 136 132 232
 40 204 136
 80 120 160
 240 220 16
 136 112 24
 40 64 176
 160 248 224
 128 248 128
 168 112 120
 168 192 48
 232 8 176
 0 176 8
 0 180 200
 168 188 240
 240 48 16
 104 48 232
 200 196 192
 168 112 56
 8 4 80
 48 68 128
 144 104 40
 136 112 88
 176 104 8
 40 196 128
 200 72 192
 168 132 200
 176 0 192
 80 240 224
 168 112 56
 72 112 128
 192 248 208
 160 248 160
 136 112 24
 8 236 160
 136 56 24
 32 176 40
 64 176 24
 72 128 72
 176 0 192
 104 0 232
 72 124 8
 232 140 104
 136 64 216
 16 60 224
 208 12 128
 136 112 24
 72 184 136
 40 244 192
 200 72 192
 72 120 240
 72 252 56
 216 12 232
 104 240 168
 72 64 128
 160 248 224
 160 248 160
 168 112 56
 112 16 144
 40 116 56
 40 116 56
 40 116 248
 40 192 192
 104 252 24
 104 0 168
 192 252 72
 16 12 96
 168 244 112
 232 76 40
 240 12 224
 200 112 72
 16 12 160
 168 124 240
 200 72 192
 72 120 240
 8 204 232
 80 196 32
 232 196 40
 200 52 80
 136 4 0
 200 4 80
 232 188 104
 80 16 240
 232 68 232
 40 116 56
 104 136 104
 176 32 72
 104 252 24
 168 48 176
 8 0 216
 160 252 120
 200 0 72
 32 204 176
 200 76 200
 72 188 8
 136 188 144
 8 0 24
 168 72 240
 8 120 224
 168 132 200
 240 112 80
 200 112 72
 232 4 112
 160 248 224
 128 248 192
 136 64 88
 232 240 32
 32 244 48
 224 248 240
 0 248 208
 208 60 120
 168 252 192
 40 72 128
 40 0 248
 160 252 120
 96 252 96
 96 252 160
 96 252 160
 128 252 152
 128 252 152
 8 0 24
 136 48 208
 232 72 224
 136 132 232
 48 56 72
 72 56 0
 160 196 32
 0 244 80
 224 196 112
 232 116 232
 216 224 96
 152 224 176
 120 208 200
 56 172 24
 24 156 248
 48 124 16
 136 120 168
 40 0 184
 160 252 120
 96 252 160
 64 204 128
 96 252 160
 128 252 152
 160 252 184
 40 0 56
 136 48 208
 168 48 240
 136 132 40
 240 56 152
 168 64 120
 136 56 88
 232 68 40
 200 60 8
 168 164 240
 184 224 144
 152 224 176
 152 224 176
 184 224 144
 184 224 144
 88 108 232
 72 252 120
 40 0 184
 128 204 88
 96 204 160
 64 204 128
 64 204 128
 96 252 160
 128 252 152
 8 0 24
 104 48 40
 200 72 192
 80 4 120
 184 212 80
 248 224 64
 184 224 144
 152 208 240
 88 172 40
 56 168 216
 216 224 96
 216 224 96
 184 224 144
 216 224 160
 216 224 160
 184 172 208
 112 4 216
 40 0 248
 64 204 64
 64 204 64
 32 204 176
 64 252 128
 96 252 160
 96 252 160
 200 0 8
 72 48 8
 8 120 224
 48 140 144
 248 224 0
 216 224 96
 184 224 144
 184 224 144
 184 224 144
 216 224 96
 216 224 96
 184 224 144
 216 224 160
 184 224 144
 120 172 8
 88 20 224
 168 244 136
 40 0 56
 64 204 64
 0 204 144
 0 204 144
 32 204 176
 64 204 128
 96 252 160
 160 252 184
 168 72 112
 112 56 88
 88 156 168
 248 224 64
 216 224 96
 216 224 96
 216 224 96
 184 224 144
 216 224 96
 216 224 96
 184 224 144
 184 224 144
 152 208 240
 88 172 104
 216 36 232
 48 60 72
 232 140 160
 168 4 248
 64 248 0
 32 204 240
 32 204 240
 64 252 192
 136 0 88
 8 52 152
 168 124 240
 168 196 136
 144 148 32
 248 156 72
 184 224 144
 216 224 160
 216 224 96
 216 224 96
 216 224 96
 216 224 96
 216 224 96
 184 224 144
 152 208 240
 56 172 88
 152 36 120
 240 220 208
 208 68 184
 48 12 192
 232 192 224
 200 192 128
 168 184 176
 200 192 128
 232 192 160
 40 240 192
 144 12 232
 16 68 168
 240 220 208
 152 80 248
 56 172 24
 152 224 176
 184 224 80
 216 224 96
 216 224 96
 120 168 136
 88 168 168
 120 168 136
 120 168 136
 88 168 232
 88 172 40
 248 96 136
 120 80 192
 24 20 112
 208 232 48
 144 216 96
 112 164 152
 112 164 152
 144 220 160
 208 232 112
 56 36 80
 184 92 24
 56 156 152
 120 208 200
 152 208 240
 184 224 144
 216 224 96
 216 224 96
 216 224 96
 248 100 200
 184 40 24
 216 80 40
 216 80 40
 216 84 232
 216 80 40
 216 80 40
 184 80 24
 184 80 24
 184 80 24
 184 80 24
 216 80 40
 216 96 40
 248 100 200
 56 152 216
 88 168 232
 120 208 136
 184 208 144
 216 224 96
 216 224 96
 216 224 96
 248 224 0
 248 224 0
 248 224 0
