P3
# MEM GENERATED PPM IMAGE
24 24
255
 176 116 16
 168 172 200
 168 172 232
 184 160 160
 96 120 240
 96 120 240
 96 120 208
 96 120 208
 112 120 144
 112 104 128
 120 124 40
 104 96 104
 96 120 240
 184 52 168
 56 40 184
 40 40 248
 40 40 200
 40 40 200
 40 40 200
 40 40 200
 40 40 200
 40 40 232
 40 56 232
 160 176 72
 200 36 0
 80 208 96
 88 72 96
 208 200 248
 200 192 16
 216 192 80
 216 208 112
 216 208 64
 216 208 64
 40 56 232
 168 168 240
 176 184 32
 56 52 152
 216 204 128
 192 216 152
 216 92 120
 64 80 128
 136 156 16
 144 148 224
 144 132 248
 128 152 40
 128 136 40
 0 128 56
 64 88 176
 200 216 40
 128 84 48
 152 132 112
 80 88 192
 80 88 192
 80 64 216
 80 64 224
 80 64 216
 200 76 24
 216 76 88
 216 92 88
 216 92 120
 72 80 8
 192 216 136
 192 216 152
 192 192 136
 216 92 88
 64 76 160
 64 76 160
 64 92 128
 144 156 192
 128 156 128
 128 148 184
 80 76 224
 200 192 16
 64 84 16
 128 72 176
 64 72 144
 64 72 176
 64 88 176
 80 80 200
 184 80 184
 120 68 160
 168 80 248
 176 212 8
 104 208 192
 96 44 112
 184 216 128
 32 220 104
 152 132 112
 136 132 16
 136 152 160
 152 132 112
 80 92 248
 64 92 128
 128 148 184
 152 8 104
 64 68 160
 40 32 232
 200 200 8
 200 216 40
 216 192 80
 216 192 112
 192 60 128
 32 44 160
 104 84 216
 240 148 136
 240 140 144
 232 76 96
 248 156 16
 224 80 224
 248 216 0
 224 160 208
 184 52 152
 40 44 0
 40 48 240
 32 44 160
 80 76 248
 88 156 80
 152 148 112
 0 136 56
 64 80 176
 200 192 16
 136 152 144
 80 72 240
 72 88 32
 80 72 192
 72 64 56
 176 196 40
 96 144 88
 96 4 88
 240 20 56
 224 20 120
 240 20 56
 232 148 72
 240 80 144
 240 200 144
 224 172 232
 160 172 72
 56 32 168
 48 48 48
 80 64 224
 136 132 0
 136 148 32
 128 144 40
 64 88 144
 200 216 40
 144 136 64
 64 72 144
 80 88 192
 64 84 16
 80 64 200
 240 88 168
 112 4 56
 160 28 128
 112 24 0
 96 24 64
 104 4 216
 224 152 120
 248 12 184
 240 152 56
 232 200 96
 232 172 88
 40 32 216
 32 48 112
 80 64 192
 144 152 120
 144 132 192
 144 136 88
 64 64 176
 32 188 120
 216 216 80
 208 44 224
 192 60 128
 200 216 8
 184 200 184
 232 12 248
 176 12 232
 32 4 168
 160 12 136
 160 0 112
 96 16 112
 160 28 128
 160 20 184
 112 16 48
 232 152 216
 224 160 224
 96 168 80
 40 208 48
 80 64 224
 136 152 160
 136 132 32
 136 136 184
 64 88 176
 192 44 160
 64 212 168
 152 132 112
 136 152 160
 136 132 48
 120 84 184
 96 16 112
 200 8 48
 48 84 240
 176 60 32
 56 4 112
 32 24 176
 48 24 224
 48 24 192
 160 20 168
 104 8 240
 240 88 136
 232 56 88
 40 208 48
 80 64 224
 152 132 112
 136 132 32
 136 136 184
 88 80 120
 192 44 160
 64 212 168
 64 88 176
 64 64 128
 144 132 240
 248 64 48
 168 12 40
 192 140 136
 176 168 0
 176 184 32
 56 212 184
 200 128 48
 176 36 56
 48 84 240
 32 8 160
 32 20 152
 112 8 48
 224 72 216
 176 52 56
 80 64 216
 64 64 176
 136 132 32
 136 136 128
 64 212 136
 48 56 40
 216 92 120
 72 80 56
 88 132 80
 88 140 120
 224 152 120
 208 8 224
 192 92 128
 40 56 232
 216 76 88
 40 52 216
 184 36 136
 168 168 192
 160 184 88
 216 24 64
 48 4 232
 160 12 136
 120 24 160
 176 60 16
 72 80 24
 64 64 176
 152 152 224
 136 152 128
 88 80 120
 200 192 48
 128 72 176
 128 144 8
 152 20 200
 208 92 240
 176 16 16
 208 16 232
 208 68 192
 72 80 56
 88 132 80
 56 196 128
 48 40 40
 88 80 88
 48 40 8
 32 68 128
 208 8 192
 48 4 200
 168 0 192
 104 208 224
 72 80 56
 64 80 128
 152 152 208
 136 152 160
 72 80 24
 32 44 160
 72 88 24
 128 144 40
 128 144 24
 216 128 72
 168 0 192
 208 0 232
 200 156 8
 88 76 104
 80 64 216
 40 220 224
 216 204 128
 72 80 24
 192 216 136
 48 84 192
 208 8 192
 48 24 240
 168 28 56
 96 204 232
 192 208 168
 64 64 128
 152 152 224
 136 152 160
 72 80 56
 56 48 144
 200 212 56
 200 212 56
 208 212 248
 48 192 192
 168 28 24
 192 0 168
 80 28 72
 32 204 96
 216 84 112
 72 140 40
 200 204 224
 88 80 72
 56 204 160
 208 156 240
 208 8 192
 48 24 240
 176 12 232
 112 68 32
 72 68 40
 152 148 80
 136 132 0
 152 132 80
 88 92 104
 40 48 240
 80 196 232
 200 212 56
 216 200 104
 32 32 72
 168 28 24
 192 16 176
 208 0 216
 80 28 120
 88 0 72
 72 12 176
 80 140 200
 200 92 8
 192 92 144
 200 0 24
 208 8 240
 48 24 224
 48 4 200
 160 80 80
 88 80 72
 152 132 112
 152 152 224
 152 152 192
 88 64 88
 200 208 32
 64 84 48
 152 152 240
 88 152 208
 32 220 120
 176 28 192
 32 8 128
 208 0 248
 80 28 120
 80 28 96
 72 28 160
 72 28 160
 72 28 152
 72 28 152
 200 0 24
 208 16 208
 208 8 224
 48 4 232
 160 88 72
 72 88 0
 128 68 32
 80 84 80
 144 68 112
 80 212 232
 232 224 96
 240 224 176
 224 240 200
 248 108 24
 224 124 248
 112 156 16
 32 24 168
 192 0 184
 80 28 120
 72 28 160
 72 12 128
 72 28 160
 72 28 152
 72 28 184
 200 0 56
 208 16 208
 208 16 240
 40 4 40
 56 88 152
 88 64 120
 88 88 88
 72 196 40
 72 220 8
 208 36 240
 240 224 144
 240 224 176
 240 224 176
 240 224 144
 240 224 144
 224 172 232
 184 28 120
 192 0 184
 80 12 88
 72 12 160
 72 12 128
 72 12 128
 72 28 160
 72 28 152
 200 0 24
 200 16 40
 208 8 192
 160 132 120
 232 116 80
 232 224 64
 240 224 144
 224 240 240
 248 108 40
 224 232 216
 232 224 96
 232 224 96
 240 224 144
 240 224 160
 240 224 160
 224 108 208
 168 132 216
 208 0 248
 80 12 64
 80 12 64
 72 12 176
 72 28 128
 72 28 160
 72 28 160
 72 0 8
 200 16 8
 48 24 224
 120 76 144
 248 224 0
 232 224 96
 240 224 144
 240 224 144
 240 224 144
 232 224 96
 232 224 96
 240 224 144
 240 224 160
 240 224 144
 248 108 8
 96 180 224
 32 84 136
 200 0 56
 80 12 64
 72 12 144
 72 12 144
 72 12 176
 72 12 128
 72 28 160
 72 28 184
 216 8 112
 160 88 88
 240 124 168
 232 224 64
 232 224 96
 232 224 96
 232 224 96
 240 224 144
 232 224 96
 232 224 96
 240 224 144
 240 224 144
 224 240 240
 232 108 104
 96 164 232
 160 220 72
 192 76 160
 80 132 248
 64 152 0
 88 12 240
 88 12 240
 88 28 192
 88 0 88
 192 148 152
 208 156 240
 32 68 136
 176 52 32
 104 124 72
 240 224 144
 240 224 160
 232 224 96
 232 224 96
 232 224 96
 232 224 96
 232 224 96
 240 224 144
 224 240 240
 232 108 88
 104 164 120
 168 60 208
 56 196 184
 40 204 192
 208 192 224
 192 192 128
 192 216 176
 192 192 128
 192 192 160
 48 208 192
 40 204 232
 184 196 168
 168 60 208
 96 112 248
 248 108 24
 240 224 176
 232 224 80
 232 224 96
 232 224 96
 240 232 136
 240 232 168
 240 232 136
 240 232 136
 224 232 232
 248 108 40
 112 96 136
 96 112 192
 104 180 112
 176 168 48
 160 184 96
 184 36 152
 184 36 152
 184 60 160
 160 168 112
 104 164 80
 120 188 24
 240 124 152
 224 240 200
 224 240 240
 240 224 144
 232 224 96
 232 224 96
 232 224 96
 96 228 200
 120 104 24
 120 112 40
 120 112 40
 96 244 232
 120 112 40
 120 112 40
 120 112 24
 120 112 24
 120 112 24
 120 112 24
 120 112 40
 120 96 40
 96 228 200
 224 248 216
 224 232 232
 240 240 136
 240 240 144
 232 224 96
 232 224 96
 232 224 96
 248 224 0
 248 224 0
 248 224 0
