P3
# MEM GENERATED PPM IMAGE
24 24
255
 64 172 120
 24 232 96
 56 232 64
 40 36 72
 120 96 192
 120 96 192
 88 96 224
 88 96 224
 72 96 224
 8 96 240
 32 228 216
 48 40 216
 120 96 192
 40 164 64
 104 104 88
 120 104 88
 24 104 104
 24 104 104
 24 104 104
 24 104 104
 24 104 104
 56 104 72
 56 104 72
 16 36 96
 0 164 152
 48 12 48
 48 64 176
 120 68 160
 64 12 136
 80 12 136
 112 12 168
 16 12 152
 16 12 152
 56 104 72
 120 108 88
 32 108 72
 72 164 120
 8 192 88
 72 68 128
 112 196 160
 8 8 144
 64 200 152
 56 128 168
 120 128 176
 32 76 32
 32 76 32
 96 4 56
 104 64 160
 32 68 176
 96 140 56
 112 128 184
 24 64 144
 24 64 144
 88 8 136
 56 8 176
 88 8 136
 64 196 128
 80 196 128
 80 196 128
 112 196 160
 0 8 152
 8 68 144
 72 68 128
 8 12 144
 80 196 128
 40 196 176
 40 196 176
 8 196 144
 24 200 136
 8 200 136
 104 128 176
 56 196 176
 64 12 136
 64 140 0
 104 64 184
 72 64 128
 104 64 160
 104 64 160
 24 8 152
 104 8 80
 40 140 80
 120 8 80
 0 136 96
 24 12 112
 112 236 64
 8 68 104
 48 192 72
 112 128 184
 64 128 152
 40 76 40
 112 128 184
 120 196 168
 8 196 144
 104 128 176
 48 72 160
 40 140 176
 56 32 72
 0 68 144
 32 68 176
 80 12 136
 112 12 168
 8 236 152
 40 236 128
 88 140 104
 8 128 240
 72 200 232
 48 196 216
 64 200 232
 56 8 216
 0 68 248
 88 36 232
 72 164 112
 0 236 160
 120 32 80
 40 236 128
 120 196 168
 80 200 128
 112 128 184
 96 76 56
 104 8 160
 64 12 136
 72 76 24
 120 64 160
 32 64 176
 24 64 144
 96 8 168
 32 136 64
 80 4 104
 80 132 104
 96 132 64
 112 132 64
 96 132 64
 16 128 240
 72 8 232
 72 68 232
 56 232 208
 16 232 96
 40 32 72
 96 32 80
 56 8 176
 0 128 136
 32 128 168
 32 4 32
 72 64 128
 32 68 176
 16 76 8
 72 64 128
 24 64 144
 64 140 0
 24 8 152
 40 64 208
 96 132 72
 8 204 168
 0 72 112
 16 72 112
 88 132 104
 112 76 64
 104 204 64
 96 76 64
 48 68 216
 80 232 224
 88 32 120
 112 32 80
 24 8 144
 112 76 48
 24 128 136
 80 76 16
 104 8 160
 112 232 88
 80 68 136
 56 236 184
 8 236 152
 0 68 144
 104 68 80
 120 204 64
 56 204 128
 40 132 136
 8 204 160
 112 0 88
 112 0 64
 8 204 168
 104 132 144
 96 0 64
 88 76 96
 56 36 216
 80 108 96
 96 12 144
 56 8 176
 40 76 40
 32 128 168
 104 76 48
 104 64 160
 40 236 184
 40 136 184
 112 128 184
 40 76 40
 96 128 184
 104 140 72
 112 0 64
 96 72 168
 120 140 144
 32 236 72
 112 132 144
 104 72 144
 56 72 128
 24 72 160
 40 132 128
 120 72 64
 8 64 240
 80 104 224
 96 12 144
 56 8 176
 112 128 184
 32 128 168
 104 76 48
 112 8 168
 40 236 184
 40 136 184
 104 64 160
 8 8 144
 120 128 184
 96 8 200
 32 204 128
 8 200 144
 0 108 104
 32 108 72
 104 136 88
 96 4 168
 96 164 80
 120 140 144
 40 72 128
 72 132 184
 96 72 64
 88 64 224
 96 164 80
 88 8 136
 104 8 160
 32 128 168
 8 76 8
 8 136 152
 32 104 72
 112 196 160
 96 8 168
 80 128 128
 112 200 168
 112 76 64
 56 72 184
 8 196 152
 56 104 72
 80 196 128
 88 164 120
 8 164 96
 24 108 104
 80 108 112
 16 72 152
 56 132 136
 8 204 160
 40 72 80
 64 236 120
 64 8 136
 104 8 160
 56 76 40
 8 76 8
 112 8 168
 96 12 168
 104 64 184
 0 4 0
 24 132 0
 120 196 168
 64 0 120
 56 0 176
 24 140 152
 96 8 168
 80 128 128
 8 136 96
 32 104 72
 80 8 136
 0 104 104
 8 140 160
 24 72 152
 24 132 168
 24 0 104
 56 12 80
 96 8 168
 8 8 144
 88 76 24
 40 76 40
 64 8 136
 40 236 128
 64 64 136
 32 4 32
 64 4 16
 16 4 144
 24 0 104
 56 0 176
 0 200 144
 48 196 184
 88 8 136
 56 192 64
 8 192 88
 64 8 136
 8 68 144
 24 140 160
 24 72 152
 120 72 144
 96 204 144
 56 192 216
 40 12 176
 8 8 144
 56 76 40
 40 76 40
 96 8 168
 72 32 112
 96 136 160
 96 136 160
 120 136 160
 24 12 160
 64 204 176
 40 0 176
 16 204 24
 48 192 64
 112 140 168
 32 200 184
 56 192 120
 16 8 152
 40 192 64
 120 200 168
 24 72 152
 120 72 144
 56 204 128
 32 140 80
 32 140 184
 80 128 152
 0 128 136
 80 128 152
 48 196 184
 120 32 80
 56 136 184
 96 136 160
 48 68 176
 16 32 104
 64 204 176
 104 0 168
 88 0 128
 112 204 40
 16 0 152
 104 204 32
 24 200 152
 0 196 144
 72 196 136
 64 0 128
 120 72 168
 56 72 128
 24 132 168
 80 8 120
 16 8 152
 112 128 184
 56 76 40
 24 76 8
 80 8 136
 32 12 184
 96 140 32
 120 76 56
 88 76 0
 112 192 88
 24 204 168
 8 72 160
 120 0 160
 112 204 40
 48 204 48
 40 204 48
 40 204 48
 72 204 8
 72 204 8
 64 0 128
 88 0 136
 56 72 184
 56 132 136
 16 64 96
 0 64 144
 32 140 40
 80 140 0
 112 140 56
 56 136 184
 48 44 216
 104 44 200
 24 44 240
 64 228 224
 120 228 192
 64 200 96
 40 72 136
 104 0 160
 112 204 40
 40 204 48
 8 204 16
 40 204 48
 72 204 8
 104 204 40
 96 0 160
 88 0 136
 120 0 168
 32 132 136
 72 64 120
 112 8 168
 80 64 136
 32 136 184
 0 192 152
 120 164 168
 72 44 232
 104 44 200
 104 44 200
 72 44 232
 72 44 232
 56 232 208
 112 204 144
 104 0 160
 80 204 8
 40 204 48
 8 204 16
 8 204 16
 40 204 48
 72 204 8
 64 0 128
 32 0 176
 24 72 152
 112 128 80
 80 172 232
 16 44 248
 72 44 232
 120 44 200
 32 228 208
 88 100 224
 48 44 216
 48 44 216
 72 44 232
 40 44 216
 40 44 216
 88 228 232
 88 128 112
 120 0 160
 16 204 16
 16 204 16
 104 204 32
 8 204 16
 40 204 48
 40 204 48
 0 0 152
 0 0 144
 56 72 128
 72 196 96
 0 44 248
 48 44 216
 72 44 232
 72 44 232
 72 44 232
 48 44 216
 48 44 216
 72 44 232
 40 44 216
 72 44 232
 0 228 240
 56 160 208
 8 140 168
 96 0 160
 16 204 16
 72 204 0
 72 204 0
 104 204 32
 8 204 16
 40 204 48
 104 204 40
 112 72 168
 80 64 112
 40 228 208
 16 44 248
 48 44 216
 48 44 216
 48 44 216
 72 44 232
 48 44 216
 48 44 216
 72 44 232
 72 44 232
 120 44 200
 48 228 208
 56 160 216
 16 192 96
 40 196 184
 120 128 168
 0 76 16
 120 204 32
 120 204 32
 24 204 16
 80 0 136
 72 128 128
 120 200 168
 8 140 168
 32 164 72
 16 228 248
 72 44 232
 40 44 216
 48 44 216
 48 44 216
 48 44 216
 48 44 216
 48 44 216
 72 44 232
 120 44 200
 80 228 224
 112 160 200
 88 236 120
 104 136 88
 24 192 96
 56 12 184
 8 12 152
 104 68 168
 8 12 152
 40 12 184
 24 12 160
 56 192 72
 40 136 64
 88 236 120
 120 40 200
 64 228 224
 104 44 200
 80 44 232
 48 44 216
 48 44 216
 8 100 240
 40 100 208
 8 100 240
 8 100 240
 56 100 208
 32 228 208
 8 40 248
 24 40 240
 112 160 192
 96 108 88
 48 108 72
 72 164 112
 72 164 112
 40 236 72
 112 108 88
 80 160 224
 64 232 232
 72 228 224
 24 44 240
 120 44 200
 72 44 232
 48 44 216
 48 44 216
 48 44 216
 24 168 248
 64 96 232
 32 40 216
 32 40 216
 56 168 216
 32 40 216
 32 40 216
 64 40 232
 64 40 232
 64 40 232
 64 40 232
 32 40 216
 32 40 216
 24 168 248
 88 100 224
 56 100 208
 8 44 240
 72 44 232
 48 44 216
 48 44 216
 48 44 216
 0 44 248
 0 44 248
 0 44 248
